<svg id="Layer_1" data-name="Layer 1" xmlns="http://www.w3.org/2000/svg" viewBox="0 0 1954 494"><path d="M160.74,453.11q-6.35,0-12.06-6.5-9.84-12.54-14.6-51.42t-7.93-90.3Q123,254.74,118,206.51T103.3,126.84q-6.19,32.22-8.41,46.34-6,35.38-14,70.78T62,299.5q-3.18,4.92-8.41,4.92A10.28,10.28,0,0,1,48.55,303a9.11,9.11,0,0,1-5.08-8.41,10.31,10.31,0,0,1,1.43-5.08q9.52-17.92,17-51.81t13.33-68q4.92-29.2,10-49.75t11.9-25A12.81,12.81,0,0,1,103.45,93q6.19,0,10.64,8.09,10.16,19.37,16.18,52.06t9.6,72q3.57,39.28,6.27,78.47Q149,349,152.57,383.84t9.28,46.9q7.14-9,16-36.74t19.76-66.57q11.74-42.21,26.34-88.55a871.26,871.26,0,0,1,33.17-88.63Q275.64,108,299.36,77.89t53.56-39.76a9.63,9.63,0,0,1,3-.47q7.14,0,9.37,7.3a13.16,13.16,0,0,1,.31,2.85,11.3,11.3,0,0,1-1.51,5.24,9.44,9.44,0,0,1-5.47,4.29q-26,8.4-47.21,36.81T273,163q-17.22,40.47-31.11,84.9T216.76,333q-11.89,42.86-22.22,73.4t-20.63,40.7Q166.94,453.11,160.74,453.11Z"/><path d="M307.85,396.14H304.2q-14.44,0-25.39-4.6-14.44-6.19-18.25-21a30.69,30.69,0,0,1-.79-7.14q0-6.82,3.25-17.38T278,319a9,9,0,0,1,7.93-4.29,10,10,0,0,1,10,10.16,10.11,10.11,0,0,1-1.75,5.55q-14.59,21.27-14.6,32.06a12.61,12.61,0,0,0,.48,3.65q2.54,10,23.8,10,23.49,0,51.1-11.43,25.08-10.47,41.74-27.29a10.1,10.1,0,0,1,7.45-3,9.47,9.47,0,0,1,6.67,2.86,9.61,9.61,0,0,1,3,7.3,9.75,9.75,0,0,1-2.69,6.66q-19.37,19.51-48.32,31.58T307.85,396.14Zm-5.08-90a9.22,9.22,0,0,1-5.71-2.06,9.53,9.53,0,0,1-4.13-8.09,9.77,9.77,0,0,1,1.91-5.72l4.92-6.66q3.33-4.12,7.77-4.13a10.33,10.33,0,0,1,6.19,2.07q4.13,3.33,4.13,7.77a10.5,10.5,0,0,1-2.23,6.35c-1.48,2-3.06,4.13-4.76,6.35A9.77,9.77,0,0,1,302.77,306.16Z"/><path d="M428.77,390.11q-17.92,0-27.13-7.3-9-7.62-9.05-20.31,0-10.47,6.43-21.27a69.19,69.19,0,0,1,17.85-19.51q16.81-12.23,35.86-12.22a49.44,49.44,0,0,1,8.34.71,10,10,0,0,1,6.58,3.89,9.76,9.76,0,0,1,1.91,6,9.64,9.64,0,0,1-4.13,7.93,9.76,9.76,0,0,1-6,1.91l-1.43-.16a39.93,39.93,0,0,0-4.92-.32,39.19,39.19,0,0,0-24.44,8.41,48.9,48.9,0,0,0-12.53,13.65,23.4,23.4,0,0,0-3.65,11.9q.46,7.31,15.39,7.3,11.9,0,32.69-4.44a411,411,0,0,0,52.69-15.63q24.27-9.14,30-13.73a10.12,10.12,0,0,1,6.66-2.54h2.38q2.07.16,4.84,3.17a9.67,9.67,0,0,1,2.78,6.67c0,.21-.05,1-.16,2.38s-1.16,3.07-3.17,5.08q-6.82,5.71-34,16.34a416.5,416.5,0,0,1-57.92,17.78A168.74,168.74,0,0,1,428.77,390.11Z"/><path d="M660.94,290.45l-.16.32a9.91,9.91,0,0,1-6.51,7.94q-11.74,11.1-33.32,24.75a317.33,317.33,0,0,1-37.61,20.15l.63.16q24.43,10.32,59.83,19.52,30.47,7.79,55.38,7.78a101.37,101.37,0,0,0,35.07-6q16.5-6,24.12-24.28,2.53-6.35,9.21-6.35a11.38,11.38,0,0,1,3.65.64q6.35,2.54,6.35,9.2a11.61,11.61,0,0,1-.64,3.65q-17.94,43-76.81,43-2.53,0-17.77-.55T639,382.65q-38.09-10-64.91-21.42a380,380,0,0,0-11.42,69.19,10.28,10.28,0,0,1-3.33,6.82,9.92,9.92,0,0,1-6.83,2.54,9,9,0,0,1-7.14-3.09,10.27,10.27,0,0,1-2.7-6.91v-.47a400.81,400.81,0,0,1,13.49-78.55l-.16-.16a10.87,10.87,0,0,1-9.2-4.76,10.1,10.1,0,0,1,2.7-13.33l.47-.32a9.64,9.64,0,0,1,5.56-1.75l2.69.16a22,22,0,0,0,4-.63,867.22,867.22,0,0,1,31-83.24q17.52-40.54,34.83-76.72l10.63-22.7q2.85-5.87,8.89-5.87a10.15,10.15,0,0,1,4.28.95q5.86,3,5.87,9.05a9.71,9.71,0,0,1-1,4.13l-4.6,10Q630.79,210.79,615,246.65t-28.65,73.48q12.06-6.19,24.12-13.65,15.39-9.53,24.28-14.6,6-3.48,6.35-3.81a9.71,9.71,0,0,1,2.7-5.87,9.3,9.3,0,0,1,7.3-3,10.35,10.35,0,0,1,6.19,2.22Q660.94,284.26,660.94,290.45Z"/><path d="M803.6,396.14H800q-14.44,0-25.39-4.6-14.44-6.19-18.25-21a30.69,30.69,0,0,1-.79-7.14q0-6.82,3.25-17.38t15-27.05a9,9,0,0,1,7.93-4.29A10,10,0,0,1,790,330.44q-14.6,21.27-14.6,32.06a12.61,12.61,0,0,0,.48,3.65q2.53,10,23.8,10,23.49,0,51.1-11.43,25.08-10.47,41.74-27.29a10.13,10.13,0,0,1,7.46-3,9.47,9.47,0,0,1,6.66,2.86,9.62,9.62,0,0,1,3,7.3,9.76,9.76,0,0,1-2.7,6.66q-19.36,19.51-48.32,31.58T803.6,396.14Zm-5.08-90a9.22,9.22,0,0,1-5.71-2.06,9.53,9.53,0,0,1-4.13-8.09,9.77,9.77,0,0,1,1.91-5.72l4.92-6.66q3.33-4.12,7.77-4.13a10.31,10.31,0,0,1,6.19,2.07q4.13,3.33,4.13,7.77a10.55,10.55,0,0,1-2.22,6.35c-1.49,2-3.07,4.13-4.76,6.35A9.8,9.8,0,0,1,798.52,306.16Z"/><path d="M914.69,404.08a50.68,50.68,0,0,1-8.42-.64q-24.12-5.24-24.12-26.18,0-15.08,11-32.06a128.63,128.63,0,0,1,27.06-30.71q15.63-12.76,28-12.77a19,19,0,0,1,12.69,4.76q7.93,7.47,7.94,20.15A37.11,37.11,0,0,1,964,344.25q-4.77,8.89-15.71,14.92-9.69,5.71-25.08,5.71a106.59,106.59,0,0,1-17.45-1.59Q902,370.91,902,376.46l.16,1.91q.63,5.86,13.81,5.87,18.09,0,54.27-12.85a478,478,0,0,0,44.83-18.33q20.24-9.6,27.21-15.95a9.77,9.77,0,0,1,6.67-2.7h2.22q2.22,0,5.08,3a9.5,9.5,0,0,1,2.85,6.66v2.38q0,7.14-33.64,23.49a446.68,446.68,0,0,1-48.72,20.31,300.32,300.32,0,0,1-39.51,11.11A111.45,111.45,0,0,1,914.69,404.08Zm7.45-59q10.64,0,17-3.49Q949,336,949,326q-.32-4.92-2.22-4.92-1.43,0-4.92,2.06-12.54,7.78-24,21.74Z"/><path d="M1272.22,453.11q-6.36,0-12.06-6.5-9.86-12.54-14.6-51.42t-7.94-90.3q-3.18-50.15-8.17-98.38t-14.68-79.67q-6.19,32.22-8.41,46.34-6,35.38-14,70.78t-18.88,55.54q-3.18,4.92-8.41,4.92A10.31,10.31,0,0,1,1160,303a9.11,9.11,0,0,1-5.08-8.41,10.31,10.31,0,0,1,1.43-5.08q9.53-17.92,17-51.81t13.33-68q4.92-29.2,10-49.75t11.9-25a12.85,12.85,0,0,1,6.35-1.91q6.18,0,10.63,8.09,10.15,19.37,16.19,52.06t9.6,72q3.57,39.28,6.27,78.47,2.85,45.39,6.42,80.22t9.29,46.9q7.14-9,16-36.74T1309,327.43q11.74-42.21,26.35-88.55a871.23,871.23,0,0,1,33.16-88.63q18.57-42.28,42.29-72.36t53.56-39.76a9.69,9.69,0,0,1,3-.47q7.14,0,9.36,7.3a13.18,13.18,0,0,1,.32,2.85,11.42,11.42,0,0,1-1.51,5.24,9.46,9.46,0,0,1-5.48,4.29q-26,8.4-47.21,36.81T1384.49,163q-17.22,40.47-31.1,84.9T1328.23,333q-11.89,42.86-22.21,73.4t-20.63,40.7Q1278.4,453.11,1272.22,453.11Z"/><path d="M1419.32,396.14h-3.65q-14.43,0-25.39-4.6-14.43-6.19-18.25-21a31.24,31.24,0,0,1-.79-7.14q0-6.82,3.25-17.38t15-27.05a9,9,0,0,1,7.93-4.29,10,10,0,0,1,10,10.16,10.1,10.1,0,0,1-1.74,5.55q-14.61,21.27-14.6,32.06a13,13,0,0,0,.47,3.65q2.54,10,23.81,10,23.48,0,51.1-11.43,25.07-10.47,41.73-27.29a10.14,10.14,0,0,1,7.46-3,9.47,9.47,0,0,1,6.66,2.86,9.62,9.62,0,0,1,3,7.3,9.76,9.76,0,0,1-2.7,6.66q-19.37,19.51-48.32,31.58T1419.32,396.14Zm-5.07-90a9.24,9.24,0,0,1-5.72-2.06,9.52,9.52,0,0,1-4.12-8.09,9.76,9.76,0,0,1,1.9-5.72l4.92-6.66q3.33-4.12,7.78-4.13a10.35,10.35,0,0,1,6.19,2.07q4.13,3.33,4.12,7.77a10.55,10.55,0,0,1-2.22,6.35q-2.22,3-4.76,6.35A9.8,9.8,0,0,1,1414.25,306.16Z"/><path d="M1530.41,404.08a50.55,50.55,0,0,1-8.41-.64q-24.12-5.24-24.12-26.18,0-15.08,10.95-32.06a128.38,128.38,0,0,1,27.05-30.71q15.63-12.76,28-12.77a19,19,0,0,1,12.7,4.76q7.94,7.47,7.93,20.15a37.11,37.11,0,0,1-4.76,17.62q-4.76,8.89-15.71,14.92-9.67,5.71-25.07,5.71a106.71,106.71,0,0,1-17.46-1.59q-3.81,7.62-3.81,13.17l.16,1.91q.63,5.86,13.81,5.87,18.09,0,54.27-12.85a476.91,476.91,0,0,0,44.83-18.33q20.23-9.6,27.22-15.95a9.74,9.74,0,0,1,6.66-2.7h2.22c1.48,0,3.18,1,5.08,3a9.47,9.47,0,0,1,2.86,6.66v2.38q0,7.14-33.65,23.49a447.32,447.32,0,0,1-48.71,20.31,300.44,300.44,0,0,1-39.52,11.11A111.45,111.45,0,0,1,1530.41,404.08Zm7.46-59q10.62,0,17-3.49,9.83-5.55,9.84-15.55-.33-4.92-2.23-4.92-1.43,0-4.92,2.06-12.52,7.78-24,21.74Z"/><path d="M1747.82,436.93h-.64q-12.71-1.59-16.82-12.7a55.68,55.68,0,0,1-2.86-18.88q0-4.61.48-9.68,3.16-27,13.33-69.67v-.32q-18.57,23.32-37.77,45.23-30.15,34.59-41.89,34.59h-.48q-10.79-1.1-10.79-13.17l.16-3.65q4.28-36,17.45-63.79,3-5.72,9-5.71a10.76,10.76,0,0,1,4.28.95,9.48,9.48,0,0,1,5.72,9,10.05,10.05,0,0,1-1,4.29,163.5,163.5,0,0,0-13.64,43.64q8.4-9.36,39.35-47l1.43-1.59q17.46-21.42,25.07-29.2,7.14-6.34,12.86-6.35,4.59,0,8.25,4.37t3.65,13.09q0,10.47-6.35,37.93-9.36,39.19-9.36,60.77c0,.75,0,2.23.08,4.45s.66,3.33,1.82,3.33q7.93,0,50.78-24.12,30.8-17.3,57.29-34t31.9-21.58a10,10,0,0,1,7.14-2.86,9.83,9.83,0,0,1,7,2.86,10.18,10.18,0,0,1,2.86,7,10.36,10.36,0,0,1-2.86,7.14q-6,5.57-34,23.25t-59.67,35.63Q1761.78,436.93,1747.82,436.93Z"/></svg>