<svg id="Layer_1" data-name="Layer 1" xmlns="http://www.w3.org/2000/svg" viewBox="0 0 295 260"><path d="M77.6,211.4c-2,0-3.81-1-5.57-3q-4.55-5.79-6.74-23.73T61.63,143q-1.47-23.13-3.77-45.41T51.08,60.82Q48.23,75.69,47.2,82.2q-2.79,16.33-6.45,32.67T32,140.5a4.43,4.43,0,0,1-3.88,2.27,4.75,4.75,0,0,1-2.35-.65,4.22,4.22,0,0,1-2.34-3.89,4.73,4.73,0,0,1,.66-2.34Q28.53,127.61,32,112t6.15-31.39q2.27-13.47,4.61-23t5.5-11.53a5.86,5.86,0,0,1,2.92-.88c1.91,0,3.54,1.24,4.91,3.73q4.69,8.94,7.47,24T68,106.19q1.65,18.14,2.9,36.22,1.32,20.94,3,37t4.29,21.65q3.3-4.19,7.36-17t9.12-30.72q5.41-19.49,12.16-40.87a402.56,402.56,0,0,1,15.3-40.91,153.47,153.47,0,0,1,19.52-33.4q11-13.87,24.72-18.35a4.55,4.55,0,0,1,1.39-.22A4.21,4.21,0,0,1,172,23a5.94,5.94,0,0,1,.15,1.32,5.3,5.3,0,0,1-.69,2.42,4.38,4.38,0,0,1-2.53,2q-12,3.89-21.79,17a153.57,153.57,0,0,0-17.73,31.79q-7.93,18.67-14.35,39.18T103.45,156Q98,175.73,93.2,189.83t-9.53,18.79Q80.44,211.4,77.6,211.4Z"/><path d="M184.61,245.5q-2.93,0-5.57-3-4.53-5.79-6.73-23.73t-3.67-41.68q-1.45-23.15-3.77-45.41T158.1,94.91q-2.86,14.88-3.88,21.39-2.79,16.33-6.45,32.67t-8.72,25.63a4.44,4.44,0,0,1-3.88,2.27,4.73,4.73,0,0,1-2.34-.66,4.21,4.21,0,0,1-2.34-3.88,4.82,4.82,0,0,1,.65-2.34q4.4-8.28,7.84-23.92t6.15-31.38q2.28-13.47,4.62-23t5.49-11.54a6,6,0,0,1,2.93-.88c1.91,0,3.54,1.25,4.91,3.74q4.68,8.94,7.47,24T175,140.29q1.65,18.12,2.89,36.21,1.32,21,3,37t4.28,21.64q3.3-4.17,7.37-16.95t9.11-30.73Q207,168,213.76,146.62a403.29,403.29,0,0,1,15.31-40.9,152.6,152.6,0,0,1,19.52-33.4Q259.54,58.45,273.31,54a4.26,4.26,0,0,1,1.39-.22A4.21,4.21,0,0,1,279,57.12a5.94,5.94,0,0,1,.15,1.32,5.33,5.33,0,0,1-.7,2.42,4.38,4.38,0,0,1-2.53,2q-12,3.89-21.78,17a153.74,153.74,0,0,0-17.73,31.78q-8,18.67-14.35,39.19t-11.61,39.25q-5.5,19.78-10.26,33.88t-9.52,18.79C188.54,244.57,186.52,245.5,184.61,245.5Z"/></svg>