<svg id="Layer_1" data-name="Layer 1" xmlns="http://www.w3.org/2000/svg" viewBox="0 0 399 135"><defs><style>.cls-1{fill:#fff;}</style></defs><path class="cls-1" d="M273.47,40.26h-1.22v-.48a4.71,4.71,0,0,0,1.28-.6,9.39,9.39,0,0,0,1.27-1,8.44,8.44,0,0,0,1-1.14,6.91,6.91,0,0,0,.63-1H277v3.58h2.34l-.25.68H277v4.9l0,.92a1.76,1.76,0,0,0,.34,1.17,1.15,1.15,0,0,0,1.88-.19,2.73,2.73,0,0,0,.32-1.31h.25a2.85,2.85,0,0,1-.59,1.78c-.39.51-1.24.76-2.54.76a3.87,3.87,0,0,1-2.21-.64,2.08,2.08,0,0,1-1-1.82Z"/><path class="cls-1" d="M284.22,40.91a2.57,2.57,0,0,1,.94-1.11,3.16,3.16,0,0,1,1.74-.4,3.76,3.76,0,0,1,2.21.68,2,2,0,0,1,1,1.73v4.88a2.24,2.24,0,0,0,.11.86c.08.13.29.22.63.26h.4v.29h-5.57v-.29h.23c.32,0,.52-.08.59-.22a2.46,2.46,0,0,0,.1-.9l0-.83V42.19l0-.74a1.79,1.79,0,0,0-.25-1.08.89.89,0,0,0-.75-.32,1,1,0,0,0-.86.39,5.22,5.22,0,0,0-.42.81v4.61l0,.83a2.83,2.83,0,0,0,.09.91q.11.21.6.21h.24v.29h-5.59v-.29h.41c.35,0,.56-.12.63-.26a2.17,2.17,0,0,0,.11-.86V36.23a1,1,0,0,0-.16-.67,1,1,0,0,0-.65-.25l-.69,0V35h5v4.27c0,.39,0,.73,0,1S284.24,40.75,284.22,40.91Z"/><path class="cls-1" d="M300.61,45.41A4.27,4.27,0,0,1,299,47.53a4.52,4.52,0,0,1-2.63.76,5.15,5.15,0,0,1-3.5-1.18,4.45,4.45,0,0,1,0-6.46,5,5,0,0,1,3.4-1.25,4.16,4.16,0,0,1,3.18,1.17,4,4,0,0,1,1.1,2.86h-5.53a10.17,10.17,0,0,0,.1,1.33,5,5,0,0,0,.38,1.3,2.49,2.49,0,0,0,.78,1,2,2,0,0,0,1.28.38,2.39,2.39,0,0,0,1.75-.62,3.92,3.92,0,0,0,1-1.55Zm-3.18-2.34c0-.13,0-.29,0-.47s0-.4,0-.68a4.16,4.16,0,0,0-.26-1.66,1,1,0,0,0-.93-.57.8.8,0,0,0-.8.55,5.91,5.91,0,0,0-.31,1.68l0,1.15Z"/><path class="cls-1" d="M192.73,61.1l-8.3,18.24a10.88,10.88,0,0,0-.48,1.24,5.8,5.8,0,0,0-.34,1.2,1,1,0,0,0,.17.6.6.6,0,0,0,.51.22,3.55,3.55,0,0,0,1.87-1,16.65,16.65,0,0,0,2.57-2.71A24.8,24.8,0,0,0,191.2,75l.62.28a36.2,36.2,0,0,1-2.76,4.44A12.42,12.42,0,0,1,185.53,83a9.37,9.37,0,0,1-5.08,1.32,4.62,4.62,0,0,1-3.6-1.32,5.72,5.72,0,0,1-1.2-4,16.17,16.17,0,0,1-3.58,4,7.27,7.27,0,0,1-4.39,1.25A6.41,6.41,0,0,1,163,82.48a6.53,6.53,0,0,1-1.85-4.82q0-5.67,5.21-11.36t11.54-5.68a5.11,5.11,0,0,1,2.69.72,2.44,2.44,0,0,1,1.2,2.25l-.14,1.15,1.68-3.64Zm-11.61,2.59a1.75,1.75,0,0,0-.31-1.13,1.25,1.25,0,0,0-1-.36c-.6,0-1.3.48-2.09,1.44a32.71,32.71,0,0,0-3,5q-1.87,3.6-3.75,8t-1.87,5.66a1.09,1.09,0,0,0,.19.67.7.7,0,0,0,.58.24,3.85,3.85,0,0,0,2.83-1.46,24.74,24.74,0,0,0,2.06-2.5,24.58,24.58,0,0,0,1.9-3.5c.78-1.65,1.73-3.77,2.83-6.36A16.72,16.72,0,0,0,181.12,63.69Z"/><path class="cls-1" d="M217.12,60.6A5.66,5.66,0,0,1,221,62a5.37,5.37,0,0,1,1.61,4.25,8.24,8.24,0,0,1-.53,2.76c-.35,1-.78,2-1.29,3.14s-1.43,3-2.74,5.47-2,4-2,4.47a.8.8,0,0,0,.19.57.78.78,0,0,0,.58.2,2.53,2.53,0,0,0,1.3-.58,15.31,15.31,0,0,0,2.23-2.16,22.25,22.25,0,0,0,3-4.74l.62.33A37.45,37.45,0,0,1,219.73,82,7.22,7.22,0,0,1,214,84.34a4.71,4.71,0,0,1-3.84-1.54,5.63,5.63,0,0,1-1.3-3.79,7.51,7.51,0,0,1,.34-2.49c.22-.64.9-2.12,2-4.42s2.07-4.19,2.81-5.66a8.64,8.64,0,0,0,1.1-3.46,1,1,0,0,0-.19-.7.83.83,0,0,0-.63-.21,2.59,2.59,0,0,0-1.46.72,13.91,13.91,0,0,0-2.09,2.3,25.09,25.09,0,0,0-2.49,4.32l-7,14.44H192l8.16-18.23c.19-.48.41-1,.67-1.61a3.88,3.88,0,0,0,.38-1.27.71.71,0,0,0-.14-.48.57.57,0,0,0-.43-.14,2.82,2.82,0,0,0-1.54.6,9.26,9.26,0,0,0-1.7,1.55,25.58,25.58,0,0,0-1.83,2.42c-.65,1-1.3,2-1.94,3l-.63-.29A35.09,35.09,0,0,1,197.51,63,7.22,7.22,0,0,1,203,60.6,4.73,4.73,0,0,1,206.63,62,5.61,5.61,0,0,1,208,66a8.94,8.94,0,0,1-.22,2.09c-.14.63-.26,1.13-.36,1.52a33,33,0,0,1,4.16-6.66A6.93,6.93,0,0,1,217.12,60.6Z"/><path class="cls-1" d="M248.61,79.34c-.26.64-.44,1.12-.56,1.46a3,3,0,0,0-.16.94.68.68,0,0,0,.16.5.71.71,0,0,0,.51.17c1,0,2-.64,2.95-1.92s1.66-2.25,2.06-2.91.92-1.52,1.56-2.61l.63.29A46.68,46.68,0,0,1,253,79.91,12.3,12.3,0,0,1,249.73,83a7.87,7.87,0,0,1-4.53,1.35A5.17,5.17,0,0,1,241.53,83a4.78,4.78,0,0,1-1.47-3.67l.05-.63a18,18,0,0,1-3.67,4.25A7,7,0,0,1,232,84.33a6.16,6.16,0,0,1-4.8-2,7.89,7.89,0,0,1-1.82-5.52q0-5.52,4.58-10.85t10.39-5.32a6.62,6.62,0,0,1,3.67.86,3,3,0,0,1,1.32,2.74l0,.72c.19-.52.8-2.08,1.84-4.71s1.77-4.47,2.19-5.54.72-1.89.91-2.45a4.41,4.41,0,0,0,.29-1.27,1,1,0,0,0-.77-1.13,16.42,16.42,0,0,0-3.41-.22v-.76h14.64Zm-4-15.22a1.72,1.72,0,0,0-.33-1.15,1.27,1.27,0,0,0-1-.39,2.78,2.78,0,0,0-1.95,1.25,29.08,29.08,0,0,0-2.8,4.78q-1.78,3.52-3.72,8t-1.95,5.68a1,1,0,0,0,.22.68.75.75,0,0,0,.6.24,4,4,0,0,0,3-1.4,21.59,21.59,0,0,0,2-2.42,21.08,21.08,0,0,0,1.61-2.93c.59-1.26,1.45-3.37,2.59-6.31A21.22,21.22,0,0,0,244.62,64.12Z"/><path class="cls-1" d="M266.8,73.19a18,18,0,0,0-.53,2.37A15.64,15.64,0,0,0,266,78a7.12,7.12,0,0,0,.74,3.78A2.48,2.48,0,0,0,269,82.88a6.56,6.56,0,0,0,2-.27,9.37,9.37,0,0,0,2-.93,12.06,12.06,0,0,0,2.43-2,14.37,14.37,0,0,0,2-2.54l.68.48a19.92,19.92,0,0,1-4.76,4.76,11.28,11.28,0,0,1-6.64,1.92,11.46,11.46,0,0,1-6.65-2.14A7.12,7.12,0,0,1,257,75.94q0-5.77,5.22-10.55a17.59,17.59,0,0,1,12.28-4.77,9.11,9.11,0,0,1,5.44,1.51A4.28,4.28,0,0,1,282,65.61c0,2.53-1.47,4.42-4.43,5.69A27.41,27.41,0,0,1,266.8,73.19Zm.14-.57a9.28,9.28,0,0,0,6.1-3.76c1.82-2.24,2.73-4.23,2.73-6a2.53,2.53,0,0,0-.19-1.1c-.13-.25-.41-.38-.86-.38a2.92,2.92,0,0,0-2.11,1.15,18.23,18.23,0,0,0-2.26,3.2q-1.2,2.06-2,3.75C267.75,70.66,267.29,71.69,266.94,72.62Z"/><path class="cls-1" d="M308.94,65a5.3,5.3,0,0,1-1.29,3.6,4.18,4.18,0,0,1-3.27,1.49,4.8,4.8,0,0,1-3-1,3.29,3.29,0,0,1-1.27-2.76,3.09,3.09,0,0,1,.41-1.59c.27-.48.57-1,.89-1.53,0-.29-.17-.44-.48-.44-.48,0-1.13.62-1.95,1.85a38.32,38.32,0,0,0-2.57,4.73l-7,14.45h-9.36l8.26-18.24a7.24,7.24,0,0,0,.43-1.13A4.07,4.07,0,0,0,289,63.3a1,1,0,0,0-.14-.62.57.57,0,0,0-.48-.19,2.3,2.3,0,0,0-1.34.62,9.18,9.18,0,0,0-1.47,1.51c-.46.6-1.05,1.45-1.75,2.57s-1.27,2.08-1.68,2.88l-.63-.24q3-5.81,5.24-7.51a7.86,7.86,0,0,1,4.94-1.7,4.08,4.08,0,0,1,3.43,1.44A6.17,6.17,0,0,1,296.22,66a7.89,7.89,0,0,1-.24,1.92,11.7,11.7,0,0,1-.43,1.44l.14.05a36.1,36.1,0,0,1,3.92-6.67,5.82,5.82,0,0,1,4.82-2.11A4.08,4.08,0,0,1,307.81,62,4.71,4.71,0,0,1,308.94,65Z"/><path class="cls-1" d="M308.65,68.39c1.79-3.2,3.35-5.29,4.68-6.29a7.13,7.13,0,0,1,4.35-1.48A5.31,5.31,0,0,1,321.35,62a5.46,5.46,0,0,1,1.56,4.25,8.25,8.25,0,0,1-.58,2.83,39,39,0,0,1-1.58,3.67c-.67,1.4-1.6,3.14-2.78,5.24s-1.78,3.44-1.78,4a.89.89,0,0,0,.21.65.93.93,0,0,0,.65.22,2.7,2.7,0,0,0,1.39-.6,8.42,8.42,0,0,0,1.69-1.61c.54-.67,1.11-1.45,1.7-2.33s1.08-1.67,1.46-2.38l.63.34a40.1,40.1,0,0,1-4.35,6.1,7,7,0,0,1-5.3,1.87,5,5,0,0,1-3.94-1.51A5.56,5.56,0,0,1,309,79a8,8,0,0,1,.45-2.76c.31-.82.95-2.18,1.93-4.1s1.83-3.64,2.56-5.14,1.22-2.53,1.44-3.07a3.58,3.58,0,0,0,.34-1.2.71.71,0,0,0-.17-.51.68.68,0,0,0-.5-.16,2.43,2.43,0,0,0-1.13.6,13.84,13.84,0,0,0-2.06,2.11,23,23,0,0,0-2.57,3.91Zm9.79-15.6a4.17,4.17,0,0,1,1.35-3.21A4.52,4.52,0,0,1,323,48.33a4.61,4.61,0,0,1,3.27,1.25,4.2,4.2,0,0,1,1.34,3.21A4.13,4.13,0,0,1,326.24,56,4.59,4.59,0,0,1,323,57.26,4.48,4.48,0,0,1,319.77,56,4.24,4.24,0,0,1,318.44,52.79Z"/><path class="cls-1" d="M349.65,60.6A5.66,5.66,0,0,1,353.51,62a5.37,5.37,0,0,1,1.61,4.25,8.24,8.24,0,0,1-.53,2.76c-.35,1-.78,2-1.3,3.14s-1.42,3-2.73,5.47-2,4-2,4.47a.76.76,0,0,0,.19.57.78.78,0,0,0,.58.2,2.47,2.47,0,0,0,1.29-.58,14.77,14.77,0,0,0,2.24-2.16,22.25,22.25,0,0,0,3-4.74l.62.33A37.45,37.45,0,0,1,352.26,82a7.23,7.23,0,0,1-5.74,2.33,4.71,4.71,0,0,1-3.83-1.54,5.63,5.63,0,0,1-1.3-3.79,7.51,7.51,0,0,1,.34-2.49c.22-.64.9-2.12,2-4.42s2.07-4.19,2.8-5.66A8.53,8.53,0,0,0,347.68,63a1,1,0,0,0-.2-.7.79.79,0,0,0-.62-.21,2.59,2.59,0,0,0-1.46.72,13.91,13.91,0,0,0-2.09,2.3,25.72,25.72,0,0,0-2.5,4.32l-7,14.44h-9.36l8.16-18.23c.2-.48.42-1,.67-1.61a3.72,3.72,0,0,0,.39-1.27.66.66,0,0,0-.15-.48.56.56,0,0,0-.43-.14,2.77,2.77,0,0,0-1.53.6,9.3,9.3,0,0,0-1.71,1.55,25.66,25.66,0,0,0-1.82,2.42c-.66,1-1.31,2-1.94,3l-.63-.29A35.09,35.09,0,0,1,330,63a7.2,7.2,0,0,1,5.49-2.41A4.74,4.74,0,0,1,339.16,62a5.61,5.61,0,0,1,1.32,4,9.51,9.51,0,0,1-.22,2.09c-.14.63-.26,1.13-.36,1.52a33.5,33.5,0,0,1,4.15-6.66A7,7,0,0,1,349.65,60.6Z"/><path class="cls-1" d="M388.77,61.1q-1.59,4.17-3.44,8.85t-4.68,11.26a25.2,25.2,0,0,1-7.45,10.17Q368.6,95,361.13,95a7.89,7.89,0,0,1-5-1.58,4.63,4.63,0,0,1-2-3.74,4.49,4.49,0,0,1,1.23-3.09,4.29,4.29,0,0,1,3.35-1.37,4.46,4.46,0,0,1,3.14,1.2,3.83,3.83,0,0,1,1.3,2.93,3.55,3.55,0,0,1-1.05,2.59,3.8,3.8,0,0,1-2.79,1c-.35,0-.52.13-.52.38s.2.43.6.6a4.41,4.41,0,0,0,1.75.27A6,6,0,0,0,365.64,92a23.32,23.32,0,0,0,3.67-5.91Q371,82.4,372.6,78.8l-.14,0A15.45,15.45,0,0,1,369,82.87a7.17,7.17,0,0,1-4.57,1.47,6.61,6.61,0,0,1-4.81-1.87,6.54,6.54,0,0,1-1.92-4.9q0-5.71,5-11.33t11.45-5.62a5.27,5.27,0,0,1,2.81.72,2.62,2.62,0,0,1,1.18,2.44l-.05.82,1.49-3.5Zm-11.33,2.73a1.91,1.91,0,0,0-.34-1.22,1.29,1.29,0,0,0-1.05-.41c-.55,0-1.2.47-1.95,1.42a30,30,0,0,0-2.81,4.7c-1.12,2.19-2.32,4.86-3.62,8s-1.94,5.14-1.94,6a1,1,0,0,0,.19.67.68.68,0,0,0,.57.24,3.86,3.86,0,0,0,2.88-1.48,24.29,24.29,0,0,0,1.95-2.38,31.13,31.13,0,0,0,1.82-3.5q1.23-2.61,2.76-6.41A17.09,17.09,0,0,0,377.44,63.83Z"/><path class="cls-1" d="M154.44,122.73c.76,0,1.29-.47,1.59-1.42a11.34,11.34,0,0,0,.45-3.4h.67c0,2.82-.51,4.69-1.51,5.58a7.67,7.67,0,0,1-2.72,1.71,10.9,10.9,0,0,1-3.07.36,6.57,6.57,0,0,1-3.67-1,4.24,4.24,0,0,1-1.94-2.84,5.54,5.54,0,0,1-2.57,2.92,9.8,9.8,0,0,1-4.68,1,7.3,7.3,0,0,1-5-1.68,6.73,6.73,0,0,1-.72-8.54,5,5,0,0,1,2.44-1.8,25.66,25.66,0,0,1,3.84-.58,26.91,26.91,0,0,0,3.82-.55,5.83,5.83,0,0,0,1.75-.67,1.39,1.39,0,0,0,.53-1.23l0-4.38a5.72,5.72,0,0,0-.47-2.69,2.13,2.13,0,0,0-2-.82,2.86,2.86,0,0,0-1.59.43,1.29,1.29,0,0,0-.64,1.11c0,.36.34.8,1,1.33a2.85,2.85,0,0,1,1,2.39,3.46,3.46,0,0,1-1.32,2.65,6.5,6.5,0,0,1-4.31,1.16,4.74,4.74,0,0,1-2.86-.89,2.81,2.81,0,0,1-1.23-2.39q0-3,3.34-4.77a16.68,16.68,0,0,1,8-1.79,15.93,15.93,0,0,1,7.17,1.62,5.26,5.26,0,0,1,3.27,5v11a7.48,7.48,0,0,0,.29,2.36A1.09,1.09,0,0,0,154.44,122.73Zm-10.78-1.44v-9.17l-.14-.05a3.84,3.84,0,0,1-1.59,1.08,5.06,5.06,0,0,0-1.62,1,3.86,3.86,0,0,0-.71,1.85,15.19,15.19,0,0,0-.26,2.8,14.48,14.48,0,0,0,.33,3.46,1.48,1.48,0,0,0,1.52,1.3,2.14,2.14,0,0,0,1.59-.72A3.32,3.32,0,0,0,143.66,121.29Z"/><path class="cls-1" d="M175.58,109.29l-.05-2q0-3.73-2.62-3.74a2.6,2.6,0,0,0-2.36,1.06,11.05,11.05,0,0,0-1.11,2.16v12.28l0,2.21a5.34,5.34,0,0,0,.36,2.5c.24.35.94.53,2.12.53v.76H157v-.76l1.15,0c.93-.1,1.49-.32,1.69-.67a5.9,5.9,0,0,0,.28-2.31l0-2.21V107.61l0-2a8.23,8.23,0,0,0-.28-1.72c-.13-.39-.71-.63-1.73-.72l-1.11-.1v-.77h12.24v3.6a8.36,8.36,0,0,1,1.9-2.71q1.37-1.36,5.3-1.37a9.44,9.44,0,0,1,5.91,1.92,5.61,5.61,0,0,1,2.49,4.51v10.8l0,2.21a5.8,5.8,0,0,0,.29,2.28c.19.37.75.6,1.68.7l1.06,0v.76H173.05v-.76c1.15,0,1.85-.19,2.1-.56a5.09,5.09,0,0,0,.38-2.47l.05-2.21Z"/><path class="cls-1" d="M205.05,102.19V96l-.09-2.2a3.32,3.32,0,0,0-.48-2.12,3.43,3.43,0,0,0-2-.72l-2.24-.14v-.77h14.11V119.8l.05,2a2.65,2.65,0,0,0,.46,1.8,2.76,2.76,0,0,0,1.75.65l1.54.1v.76h-13v-2.4a6.74,6.74,0,0,1-1.71,1.92q-1.17,1-4.44,1a9.58,9.58,0,0,1-7.48-3.21c-1.92-2.14-2.88-5.06-2.88-8.74a12.31,12.31,0,0,1,2.88-8.54,9.55,9.55,0,0,1,7.48-3.22c2.24,0,3.73.31,4.47.91a6.48,6.48,0,0,1,1.63,1.92Zm-.14,3.45a2.68,2.68,0,0,0-1.06-1.82,3.34,3.34,0,0,0-2-.62,2.39,2.39,0,0,0-2.23,1.41,9.54,9.54,0,0,0-1,3.22c-.14,1.2-.23,2.29-.26,3.26s0,1.88,0,2.71V116c0,.61.07,1.67.22,3.17a10,10,0,0,0,1,3.7,2.41,2.41,0,0,0,2.28,1.44,2.78,2.78,0,0,0,3.07-2.55c.06-.73.11-2,.14-3.91s.05-3.27.05-4.2V109.2C205.05,107.85,205,106.67,204.91,105.64Z"/><path class="cls-1" d="M242.78,117.88a11.53,11.53,0,0,1-4.33,5.64,12.14,12.14,0,0,1-7,2,13.75,13.75,0,0,1-9.33-3.14,11.83,11.83,0,0,1,.12-17.23,13.18,13.18,0,0,1,9.06-3.34q5.53,0,8.47,3.12a10.76,10.76,0,0,1,2.93,7.63H228a23.68,23.68,0,0,0,.26,3.53,13.32,13.32,0,0,0,1,3.48,6.62,6.62,0,0,0,2.1,2.71,5.44,5.44,0,0,0,3.4,1,6.43,6.43,0,0,0,4.66-1.66,10.92,10.92,0,0,0,2.64-4.15Zm-8.5-6.24c0-.35-.05-.76-.07-1.24s0-1.09,0-1.83a10.71,10.71,0,0,0-.72-4.44,2.51,2.51,0,0,0-2.47-1.51,2.13,2.13,0,0,0-2.12,1.46,16,16,0,0,0-.84,4.49l-.09,3.07Z"/><path class="cls-1" d="M243.45,125.08v-.76l1.3,0c.92-.1,1.48-.32,1.68-.67a5.9,5.9,0,0,0,.28-2.31l0-2.21V107.61l0-2a8.23,8.23,0,0,0-.28-1.72c-.13-.39-.71-.63-1.73-.72l-1.25-.1v-.77h12.48v4a17.3,17.3,0,0,1,1.41-2.59c.72-1.15,2.4-1.73,5-1.73a5.32,5.32,0,0,1,3.91,1.61,5.21,5.21,0,0,1,1.61,3.82,4.89,4.89,0,0,1-1.51,3.67,5.13,5.13,0,0,1-3.72,1.46,4.35,4.35,0,0,1-3.14-1.27,3.92,3.92,0,0,1-1.32-2.9,5.51,5.51,0,0,1,.43-2.21c.32-.61.64-1.23,1-1.87-.16-.23-.32-.34-.48-.34a2.59,2.59,0,0,0-2.16,1.49,5.36,5.36,0,0,0-.91,2.78v11.09l0,2.4a3.51,3.51,0,0,0,.33,1.83,2.38,2.38,0,0,0,1.66.62l1.42.1v.76Z"/><path class="cls-1" d="M283.72,125.08H268.11v-.76l1.15,0c.94-.1,1.5-.32,1.69-.67a5.65,5.65,0,0,0,.29-2.31l.05-2.21V95.37l-.05-2a7.51,7.51,0,0,0-.29-1.72c-.12-.39-.7-.63-1.72-.72l-1.64-.1v-.77h13v29l.05,2.21a5.8,5.8,0,0,0,.29,2.28c.19.37.75.6,1.68.7l1.15,0Z"/><path class="cls-1" d="M315.26,125.08H302.63V122a7.76,7.76,0,0,1-2.71,2.64,9,9,0,0,1-4.44.91,9.28,9.28,0,0,1-5.85-2,6.27,6.27,0,0,1-2.6-5.33V107.61l0-2a3,3,0,0,0-.41-1.8,2.62,2.62,0,0,0-1.75-.64l-1.35-.1v-.77H296.3V118l.05,2a5.16,5.16,0,0,0,.69,3,2.37,2.37,0,0,0,2.07,1,2.68,2.68,0,0,0,2.21-.86,8.78,8.78,0,0,0,1.12-1.78v-13l-.09-2.21a3.3,3.3,0,0,0-.53-2.16,3.35,3.35,0,0,0-2.08-.76l-1.47-.1v-.77h13.44V119.8l0,2a2.94,2.94,0,0,0,.41,1.8,2.62,2.62,0,0,0,1.75.65l1.35.1Z"/><path class="cls-1" d="M317.32,115.15H318a23.19,23.19,0,0,0,2.49,5.71,9.43,9.43,0,0,0,2.71,2.74,6.73,6.73,0,0,0,3.58.91,3.33,3.33,0,0,0,2.06-.65,2.11,2.11,0,0,0,.87-1.8,3.19,3.19,0,0,0-.67-2.21,9.59,9.59,0,0,0-2.12-1.56c-1-.56-2.07-1.18-3.33-1.87a23.41,23.41,0,0,1-3.17-2,7.24,7.24,0,0,1-2-2.23,5.84,5.84,0,0,1-.69-2.88,6.36,6.36,0,0,1,2.68-5.49,10.93,10.93,0,0,1,6.58-2,9.15,9.15,0,0,1,3.46.67q1.57.83,3.21,1.59a1.35,1.35,0,0,0,1.15-.82,3.7,3.7,0,0,0,.48-1.92H336V111h-.63c-.26-.77-.57-1.62-1-2.54a12.32,12.32,0,0,0-1.65-2.81,9.34,9.34,0,0,0-2.28-2.19,5.65,5.65,0,0,0-3.08-.76,3.48,3.48,0,0,0-2.18.64,2,2,0,0,0-.84,1.61,2.38,2.38,0,0,0,.6,1.73,8.33,8.33,0,0,0,1.75,1.32c.77.46,1.82,1.06,3.15,1.78s2.52,1.43,3.57,2.13a9.54,9.54,0,0,1,2.64,2.62,6.18,6.18,0,0,1,1.06,3.57,6.26,6.26,0,0,1-2.81,5.57,12,12,0,0,1-6.79,1.87,9.84,9.84,0,0,1-4-.86c-1.28-.64-2.55-1.3-3.8-2-.41,0-.78.34-1.1,1a6.29,6.29,0,0,0-.58,2.16h-.67Z"/><path class="cls-1" d="M341.61,104.16h-3.26v-1.3a11.73,11.73,0,0,0,3.41-1.61,23.31,23.31,0,0,0,3.39-2.73,24.27,24.27,0,0,0,2.71-3,17.49,17.49,0,0,0,1.66-2.69h1.35v9.55h6.25l-.67,1.83h-5.58v13l.1,2.45a4.68,4.68,0,0,0,.9,3.12,2.92,2.92,0,0,0,2.29,1.06,2.88,2.88,0,0,0,2.72-1.56,7.12,7.12,0,0,0,.86-3.48h.67a7.51,7.51,0,0,1-1.58,4.72q-1.57,2-6.77,2a10.27,10.27,0,0,1-5.89-1.72,5.53,5.53,0,0,1-2.56-4.85Z"/><path class="cls-1" d="M92.89,48.91,43,125.35H26.28V31.12L26,23.63c-.31-3.32-1-5.64-2.11-6.94s-3.25-2.15-6.47-2.57L9,13.49V11H75.73v2.49l-3.27.32c-3.12.31-5.18,1.06-6.16,2.26s-1.64,3.61-2,7.25L64,30.81V86.35L92.89,42.67V31.12l-.31-7.49a28.43,28.43,0,0,0-1.4-6.94c-.63-1.61-2.86-2.62-6.71-3l-3.12-.16V11H148v2.49l-8.42.47c-3.23.31-5.38,1.07-6.48,2.26s-1.79,3.57-2.1,7.1l-.31,7.49v56q3.42-5.46,6.55-10.21t13.88-20.83Q161.85,39.71,169,30.19A72.92,72.92,0,0,1,184,15q7.8-5.7,19.65-5.7,10,0,16.62,5.85a19.33,19.33,0,0,1,6.63,15.21,20.8,20.8,0,0,1-21.37,21.37,21.56,21.56,0,0,1-14.36-5,16.28,16.28,0,0,1-5.92-13.1,13.29,13.29,0,0,1,.7-4.76,30.57,30.57,0,0,1,2-4,24.64,24.64,0,0,1,3.43-4.52c1.46-1.56,2.18-2.86,2.18-3.9s-.57-1.41-1.71-1.41a8.45,8.45,0,0,0-3.51,1,33,33,0,0,0-5.62,3.82,50.32,50.32,0,0,0-7.56,7.88q-4.06,5.07-9,11.93T149.21,65.21q-12,18.65-22.15,34.79t-15.91,25.35H92.89Z"/></svg>